<?xml version="1.0" encoding="UTF-8"?>
<svg version="1.1" xmlns="http://www.w3.org/2000/svg" width="826" height="676">
<path d="M0 0 C2.51703928 1.66923413 4.84809339 3.42802332 7.171875 5.35546875 C7.81769531 5.88914062 8.46351563 6.4228125 9.12890625 6.97265625 C14.01375184 11.42116487 18.02858687 17.07938288 20.171875 23.35546875 C19.23264352 26.34244329 17.49212821 28.24079651 15.359375 30.48046875 C7.92972949 38.96370702 4.78388005 48.85070874 5.296875 59.98046875 C5.51716592 68.09451761 4.25986978 75.67852657 2.59423828 83.60400391 C0.23960629 95.03688696 0.59906398 105.35304947 6.5625 115.7890625 C9.95405708 120.51046696 14.04053615 124.13932797 18.7890625 127.5 C35.56329076 140.29324782 45.55121088 169.00448516 48.66796875 188.8515625 C52.29645526 217.05392594 45.62608647 244.84957468 28.3828125 267.609375 C7.33596781 293.7505973 -21.38966356 309.38866389 -54.734375 314.015625 C-58.03154775 314.35568834 -61.29561353 314.4006833 -64.609375 314.4140625 C-66.14561523 314.43400269 -66.14561523 314.43400269 -67.71289062 314.4543457 C-69.75326636 314.47145544 -71.79428281 314.45433729 -73.83398438 314.39916992 C-79.246672 314.38048274 -79.246672 314.38048274 -83.73120117 317.06469727 C-85.2478794 319.09828085 -86.52277823 321.18278194 -87.828125 323.35546875 C-92.45612347 328.78009534 -97.44520406 332.21466638 -103.828125 335.35546875 C-104.52686928 343.42984715 -104.49896136 354.35534929 -99.828125 361.35546875 C-95.70852169 364.4427044 -90.61455636 365.51597651 -85.70849609 366.79199219 C-81.70913685 367.99044988 -77.78216057 370.40143318 -74.828125 373.35546875 C-74.640625 376.79296875 -74.640625 376.79296875 -74.828125 380.35546875 C-76.828125 382.35546875 -76.828125 382.35546875 -79.83984375 382.63671875 C-84.66862109 382.29619772 -88.98649612 381.12329247 -93.640625 379.85546875 C-107.75248959 376.29191659 -119.93889647 375.8995725 -133.81640625 380.4609375 C-137.71866066 381.61997286 -140.79711548 381.75066576 -144.828125 381.35546875 C-145.828125 380.35546875 -145.828125 380.35546875 -146.265625 377.10546875 C-145.828125 373.35546875 -145.828125 373.35546875 -143.578125 370.73046875 C-135.64531148 365.07483935 -126.32321033 362.69812239 -116.828125 361.35546875 C-117.00988281 360.78103027 -117.19164062 360.2065918 -117.37890625 359.61474609 C-118.20414105 356.98933565 -119.01621618 354.3600293 -119.828125 351.73046875 C-120.11429687 350.82683594 -120.40046875 349.92320312 -120.6953125 348.9921875 C-122.12681029 344.32277805 -123.22246218 340.30111427 -122.828125 335.35546875 C-123.529375 335.16984375 -124.230625 334.98421875 -124.953125 334.79296875 C-131.95192516 331.29356867 -134.67473071 325.08515194 -137.26171875 318.00390625 C-137.88446512 315.09203011 -137.61434662 313.20231044 -136.828125 310.35546875 C-135.83296875 310.14792969 -134.8378125 309.94039063 -133.8125 309.7265625 C-103.52539124 303.15822957 -70.68716258 289.82517579 -52.953125 262.85546875 C-51.88583586 261.0369324 -50.84369442 259.20338631 -49.828125 257.35546875 C-49.30734375 256.44539063 -48.7865625 255.5353125 -48.25 254.59765625 C-41.00096343 241.16131069 -34.97467513 223.08055369 -38.6875 207.82421875 C-40.43915954 201.96697556 -40.43915954 201.96697556 -42.828125 196.35546875 C-42.89281982 196.90783203 -42.95751465 197.46019531 -43.02416992 198.02929688 C-46.7541103 228.94457953 -57.52752994 255.63792044 -82.48144531 275.68359375 C-86.47878014 278.75325798 -90.61227261 281.5959134 -94.828125 284.35546875 C-95.81683594 285.00515625 -96.80554688 285.65484375 -97.82421875 286.32421875 C-116.19129065 297.68837721 -138.77101316 303.7384657 -160.1328125 298.79296875 C-160.69226563 298.64859375 -161.25171875 298.50421875 -161.828125 298.35546875 C-161.828125 297.69546875 -161.828125 297.03546875 -161.828125 296.35546875 C-159.9921875 294.9453125 -159.9921875 294.9453125 -157.453125 293.29296875 C-143.05544749 283.43656717 -135.15759575 271.81641921 -127.828125 256.35546875 C-131.13169487 259.63299899 -131.13169487 259.63299899 -134.35546875 262.98828125 C-147.18113128 276.56003495 -167.9340496 293.18734996 -187.0703125 294.59375 C-198.09617203 294.8190095 -198.09617203 294.8190095 -201.640625 292.73046875 C-203.828125 290.35546875 -203.828125 290.35546875 -205.078125 287.73046875 C-204.37990201 278.30445843 -195.67759283 270.22744198 -189.828125 263.35546875 C-188.94818068 262.30164717 -188.06930104 261.24693581 -187.19140625 260.19140625 C-182.69673372 254.80749123 -178.11603244 249.54305277 -173.328125 244.41796875 C-164.97268576 235.43568456 -157.34846258 225.75499452 -150.828125 215.35546875 C-164.20387114 223.77723484 -175.46407934 234.46608839 -186.828125 245.35546875 C-187.74464844 246.22945312 -188.66117188 247.1034375 -189.60546875 248.00390625 C-194.00013918 252.28589282 -197.82056703 256.72799496 -201.41796875 261.703125 C-202.11599609 262.52103516 -202.11599609 262.52103516 -202.828125 263.35546875 C-203.488125 263.35546875 -204.148125 263.35546875 -204.828125 263.35546875 C-207.69878646 234.1833415 -199.28256677 208.13775132 -180.828125 185.35546875 C-159.72036392 159.97633498 -128.27702587 139.57945919 -94.828125 136.35546875 C-79.00784853 135.05199578 -62.06739466 134.01980506 -46.828125 139.35546875 C-45.7872184 140.99689838 -44.78308174 142.6625909 -43.828125 144.35546875 C-41.39002345 145.51021487 -41.39002345 145.51021487 -38.828125 145.35546875 C-37.07796852 144.2687587 -37.07796852 144.2687587 -35.828125 142.35546875 C-34.35629202 133.25927576 -36.54140929 124.78615541 -39.828125 116.35546875 C-40.18261719 115.43765625 -40.53710938 114.51984375 -40.90234375 113.57421875 C-44.5014038 105.49052552 -49.85980186 98.8432314 -55.21362305 91.85693359 C-68.85509226 73.94839256 -76.55574307 56.06870356 -74.828125 33.35546875 C-72.53119064 20.63701507 -66.05190154 9.3368008 -55.828125 1.35546875 C-38.48888651 -9.32740398 -17.8347505 -10.37075962 0 0 Z M-23.265625 31.16796875 C-25.83238208 34.76142867 -26.26331531 36.91652759 -25.828125 41.35546875 C-24.02818726 44.05537537 -22.744352 45.89735525 -19.828125 47.35546875 C-16.50169437 47.65115147 -14.17168127 47.47762209 -11.015625 46.35546875 C-8.38548748 43.95077159 -7.79006986 41.97097218 -7.57421875 38.42578125 C-8.05406256 34.51320864 -9.89300829 32.81138273 -12.828125 30.35546875 C-16.75685952 28.90354512 -19.76047289 28.56157359 -23.265625 31.16796875 Z " fill="#F3E7C2" transform="translate(389.828125,6.64453125)"/>
<path d="M0 0 C3.55945617 3.37211637 4.71304082 6.2962871 5.109375 11.0703125 C4.88616863 15.00831066 2.67045412 17.32954588 0 20 C-2.3203125 20.2734375 -2.3203125 20.2734375 -5.125 20.375 C-12.76191345 20.94551647 -17.79153442 23.39088322 -23 29 C-23.66 29 -24.32 29 -25 29 C-25 29.66 -25 30.32 -25 31 C-25.66 31 -26.32 31 -27 31 C-27.35578125 31.82564453 -27.35578125 31.82564453 -27.71875 32.66796875 C-29.31487749 35.57311543 -31.31785925 37.81615861 -33.5 40.3125 C-43.23298411 51.78658539 -50.68222421 64.73835445 -58.42114258 77.59124756 C-69.92198702 96.66620508 -82.17838051 115.17838051 -98 131 C-97.34773438 131.37511719 -96.69546875 131.75023437 -96.0234375 132.13671875 C-78.01755501 142.67998623 -71.81216714 158.61566989 -64.515625 177.33203125 C-64.08741455 178.42563965 -63.6592041 179.51924805 -63.21801758 180.64599609 C-62.3883923 182.77850477 -61.56979264 184.91534905 -60.7644043 187.05712891 C-55.6844056 200.21549991 -55.6844056 200.21549991 -46 210 C-40.72293268 211.4310691 -38.02021595 211.3631298 -33.1875 208.75 C-30.47109372 207.11534844 -27.9365683 205.53671885 -26 203 C-25.81640901 200.87232994 -25.81640901 200.87232994 -26.25 198.625 C-26.35828125 197.87476563 -26.4665625 197.12453125 -26.578125 196.3515625 C-26.85481424 194.8092762 -27.16567548 193.27265002 -27.51367188 191.74487305 C-32.27719685 164.85917462 -25.76592774 134.84070569 -11.08984375 112.03125 C-9.14301015 109.27549349 -7.11581348 106.62789592 -5 104 C-3.98486328 102.71996094 -3.98486328 102.71996094 -2.94921875 101.4140625 C7.14262864 89.42192209 22.27680837 79.40278765 38.16625977 77.77856445 C49.25920411 77.20146064 57.86231479 77.94681166 67.3125 84.1875 C74.81476968 92.03871245 77.4725006 101.24541278 77.24609375 111.953125 C75.86207366 129.08861184 64.08110312 142.01900357 51.7109375 152.84765625 C40.57534846 161.68873631 18.91792684 176 4 176 C7.06341857 185.01404137 9.71011333 192.39325909 17.75 197.875 C29.04695879 201.78548573 40.37126399 199.37249197 51.0625 194.5 C63.15418977 187.94698038 72.43679902 178.38164068 80 167 C80.71774849 165.93977882 80.71774849 165.93977882 81.44999695 164.85813904 C85.38094829 158.73180524 87.27408686 153.29626678 88.5234375 146.1640625 C88.81920181 144.62282211 88.81920181 144.62282211 89.12094116 143.05044556 C89.54286325 140.84651996 89.95672782 138.6410389 90.36315918 136.4342041 C91.45285965 130.5579259 92.62910006 124.69867103 93.7890625 118.8359375 C94.26096771 116.43500408 94.73232015 114.03396194 95.203125 111.6328125 C95.43708984 110.44075195 95.67105469 109.24869141 95.91210938 108.02050781 C96.39357184 105.55845387 96.87234683 103.09587308 97.34863281 100.6328125 C98.04994858 97.01140389 98.76225268 93.39230231 99.4765625 89.7734375 C99.68600494 88.67663666 99.89544739 87.57983582 100.11123657 86.44979858 C101.67826874 78.58460226 103.50105313 72.46357407 109.921875 67.32421875 C116.3501271 63.22802052 124.49732422 61.80888177 132 63 C134.625 64.5 134.625 64.5 136 67 C136.39561082 73.51001107 135.32211695 79.41363565 133.98828125 85.76953125 C133.77958405 86.79613861 133.57088684 87.82274597 133.35586548 88.88046265 C132.91081741 91.06604055 132.46234567 93.25092367 132.01071167 95.43515015 C130.84346923 101.08126903 129.70108763 106.73243226 128.5546875 112.3828125 C128.21796272 114.03669228 128.21796272 114.03669228 127.87443542 115.72398376 C126.15181553 124.19836959 124.49999319 132.68209692 122.9375 141.1875 C122.74647705 142.22173096 122.5554541 143.25596191 122.35864258 144.3215332 C118.99459114 161.44494387 118.99459114 161.44494387 123 178 C126.27999273 179.63999637 129.45642659 179.50368518 133 179 C146.1777485 174.60026312 156.95334035 162.66427986 163.43212891 150.71630859 C166.60401398 144.2884298 167.75203596 137.70971926 168.97265625 130.69140625 C169.22356271 129.31606221 169.47590829 127.94098004 169.729599 126.56614685 C170.39069702 122.96403131 171.03400157 119.35897687 171.6729126 115.75286865 C172.31478688 112.14407302 172.97088846 108.537879 173.62695312 104.93164062 C173.81858567 103.87728349 173.81858567 103.87728349 174.01408958 102.80162621 C174.3957834 100.7023263 174.77788049 98.60310026 175.16015625 96.50390625 C175.2847887 95.81932972 175.40942116 95.13475319 175.53783035 94.42943192 C176.35358548 89.95203438 177.1747632 85.47566176 178 81 C178.19229187 79.95318054 178.38458374 78.90636108 178.58270264 77.82781982 C179.07946389 75.16172309 179.59534223 72.50035199 180.12109375 69.83984375 C180.25556412 69.1088295 180.39003448 68.37781525 180.52857971 67.62464905 C181.6462163 62.15897951 183.63410842 57.68350144 188.26171875 54.390625 C196.0060797 50.74915415 203.32368669 48.29172953 212 49 C214.83404429 51.83404429 214.68492058 54.05125638 215 58 C214.59790039 61.29147339 214.59790039 61.29147339 213.84765625 64.75341797 C213.71278809 65.3965456 213.57791992 66.03967323 213.43896484 66.70228958 C213.1447263 68.10287613 212.84556317 69.50243523 212.54202271 70.90103531 C211.69722372 74.8053408 210.89658139 78.71872161 210.09375 82.63183594 C209.83598534 83.88378219 209.83598534 83.88378219 209.57301331 85.16102028 C207.55247595 95.0561729 205.80469022 104.99807477 204.0625 114.9453125 C203.72679982 116.85375254 203.39102459 118.76217937 203.05517578 120.67059326 C201.68993728 128.4395497 200.33367062 136.21006616 198.97949219 143.98095703 C197.97132393 149.76177331 196.95750457 155.54157282 195.9375 161.3203125 C195.691707 162.71295696 195.691707 162.71295696 195.44094849 164.13373566 C192.36172047 181.51173955 188.83335141 198.77328722 185 216 C185.84539337 215.98358459 186.69078674 215.96716919 187.5617981 215.95025635 C189.89260566 215.90499795 192.22342711 215.8604499 194.55426025 215.81652832 C196.99326517 215.76766484 199.43204098 215.70699728 201.87060547 215.63964844 C209.28881393 215.57047579 215.48189355 216.25112555 222 220 C225.74969401 223.74969401 226.90206362 226.50647025 227.25 231.8125 C227.20556632 235.82634263 226.17088502 238.57668132 224 242 C218.77971215 244.61014392 212.62985034 242.76164632 207.25 241.5 C197.03559401 239.18894977 187.33621129 239.86057513 177 241 C176.814375 242.258125 176.62875 243.51625 176.4375 244.8125 C171.68126939 268.32757021 158.91895657 293.02339792 142 310 C141.25363281 310.76957031 140.50726562 311.53914063 139.73828125 312.33203125 C127.51817963 324.1885596 112.33654798 330.5676965 95.34619141 330.41796875 C85.20022748 330.05537008 77.219035 327.30830385 69.84375 320.16015625 C63.38827447 312.59685547 62.41096688 304.59444331 63 295 C64.82911255 281.11703578 72.87753906 269.27628999 82 259 C82.59039063 258.32710937 83.18078125 257.65421875 83.7890625 256.9609375 C98.83599905 240.88952868 126.60022875 224.71373711 148.86669922 223.89453125 C149.57068848 223.92933594 150.27467773 223.96414063 151 224 C153.85745845 210.70065881 156.49879152 197.37082195 159 184 C158.15179687 184.7734375 157.30359375 185.546875 156.4296875 186.34375 C142.85116868 198.49542 129.03983283 207.84679492 110.0859375 207.3515625 C102.93564772 206.53697252 97.56516725 203.57964886 93 198 C90.09442463 193.83223592 87.80878172 189.75734371 86 185 C85.32195312 185.75023437 84.64390625 186.50046875 83.9453125 187.2734375 C81.47635614 189.99573492 78.9868539 192.69835997 76.48730469 195.39257812 C75.17398434 196.8119644 73.8713154 198.24119014 72.5703125 199.671875 C59.38890044 213.60777866 41.00917723 224.52919287 21.51171875 225.3359375 C8.09158513 225.542366 -3.19658078 225.05584076 -14.37890625 216.85546875 C-14.91386719 216.57316406 -15.44882812 216.29085937 -16 216 C-19.36081523 217.12027174 -19.97429735 217.93402422 -22.125 220.625 C-29.29577046 229.01090102 -38.91857299 235.98885172 -50 238 C-60.92478702 238.84407847 -69.37959279 238.58673768 -78.1015625 231.2265625 C-89.6457246 219.59325629 -94.40675856 201.988778 -99.89306641 187.00097656 C-106.14040328 166.11597991 -106.14040328 166.11597991 -120 151 C-121.32 151 -122.64 151 -124 151 C-124.95164029 155.48094237 -125.90085664 159.96239148 -126.84805298 164.4442749 C-127.19950011 166.10713051 -127.55120525 167.76993161 -127.90316772 169.43267822 C-130.20766782 180.32845801 -132.46033238 191.2333535 -134.65234375 202.15234375 C-135.09910153 204.37052803 -135.5458788 206.58870838 -135.99267578 208.80688477 C-136.65101374 212.07676307 -137.30695598 215.34703125 -137.95550537 218.61886597 C-138.56479044 221.69241722 -139.1821169 224.76426256 -139.80078125 227.8359375 C-139.97866684 228.74597031 -140.15655243 229.65600311 -140.33982849 230.59361267 C-143.05531525 243.96692049 -143.05531525 243.96692049 -147.75 248.875 C-154.98802764 253.60755653 -163.46869975 254.13278288 -172 254 C-174.64472431 251.35527569 -174.35241186 250.15170563 -174.421875 246.44140625 C-174.23245872 235.06638483 -171.53842841 224.03873252 -169.25 212.9375 C-168.72760919 210.35144036 -168.20646917 207.76516291 -167.68725586 205.1784668 C-166.81675487 200.8465859 -165.94461489 196.515055 -165.06651306 192.18470764 C-161.16975264 172.96327085 -157.37739223 153.72110225 -153.57374382 134.48106861 C-152.03346881 126.69050494 -150.48979383 118.90062102 -148.94433594 111.11108398 C-142.88675126 80.57219451 -142.88675126 80.57219451 -137 50 C-138.4378696 50.46182643 -139.87427736 50.92820574 -141.31005859 51.39648438 C-142.51014053 51.78531799 -142.51014053 51.78531799 -143.73446655 52.18200684 C-153.3461418 55.65239685 -159.46372914 63.16996333 -164 72 C-165.64312324 76.92936973 -165.48129118 81.40572297 -164 86.3125 C-162.30391243 92.56682291 -161.78843633 98.53199993 -164.6875 104.4375 C-168.31090725 108.45262695 -171.45992902 111.5112328 -176.98046875 112.2734375 C-183.22396232 112.56074871 -187.26748545 111.11150586 -192 107 C-197.5013393 99.94700089 -197.66242612 93.68834255 -197 85 C-193.21724732 66.0862366 -178.37918164 49.80858302 -163 39 C-147.32371608 28.95362877 -123.3944499 15.23639171 -104 19 C-101.703125 20.08984375 -101.703125 20.08984375 -100 22 C-99.74890484 26.56690093 -100.17411566 30.66189078 -101.14453125 35.1171875 C-101.40419678 36.33720459 -101.6638623 37.55722168 -101.93139648 38.81420898 C-102.07423065 39.47170135 -102.21706482 40.12919373 -102.36422729 40.80661011 C-103.1649599 44.50129688 -103.93801928 48.20175388 -104.7109375 51.90234375 C-104.88477463 52.73369339 -105.05861176 53.56504303 -105.23771667 54.42158508 C-107.66451778 66.10196421 -109.9201189 77.81647638 -112.1824646 89.52960205 C-112.68611975 92.13641087 -113.1910245 94.74297856 -113.69717407 97.3493042 C-114.41438509 101.04349734 -115.12774525 104.73841212 -115.83984375 108.43359375 C-116.16748215 110.11890953 -116.16748215 110.11890953 -116.5017395 111.83827209 C-116.69960052 112.87060471 -116.89746155 113.90293732 -117.10131836 114.96655273 C-117.27561874 115.86993881 -117.44991913 116.77332489 -117.62950134 117.7040863 C-118.07965603 120.1060115 -118.07965603 120.1060115 -118 123 C-99.38011232 109.23747432 -88.18991929 82.21631985 -77.9152832 62.06689453 C-69.41918094 45.43617696 -60.65941123 28.89343787 -48 15 C-47.34378662 14.2562915 -47.34378662 14.2562915 -46.67431641 13.49755859 C-34.98208486 0.35040216 -16.82304188 -11.87508838 0 0 Z M21 110 C11.2444351 122.65822739 3.49194374 141.83185677 4 158 C22.01088127 151.78638913 38.12573703 141.39355543 47 124 C49.68135898 117.35489296 50.16823135 110.27104778 47.75 103.5 C45.89397565 100.84853664 45.08185984 99.88053138 42 99 C33.10911461 97.78760654 26.34483187 103.52289168 21 110 Z M103.24609375 268.6953125 C95.33636278 276.81138428 88.96484669 285.40183228 87.5 296.9375 C88.05366336 300.32868807 88.90673009 302.28650197 91 305 C95.52970747 308.01980498 99.69396014 307.64929172 105 307 C117.51491036 303.28699196 126.01406769 292.00595282 132 281 C137.81185293 270.03699199 141.87720813 258.99572452 145 247 C129.79948829 247 113.77230467 258.70491856 103.24609375 268.6953125 Z " fill="#F3E7C2" transform="translate(599,346)"/>
<path d="M0 0 C3.66777697 2.56744388 6.06506505 4.44519514 7.5 8.75 C7.72560676 11.14254576 7.90848595 13.53928123 8.0625 15.9375 C8.14628906 17.20980469 8.23007812 18.48210937 8.31640625 19.79296875 C8.37699219 20.76878906 8.43757812 21.74460937 8.5 22.75 C19.76560207 23.34292642 29.05214551 22.45375904 39.7734375 18.9375 C46.26522703 16.86883751 52.12191783 15.63512266 58.5 18.75 C61.13675406 20.46032696 62.27893238 21.72118066 62.94506836 24.82128906 C63.65393209 31.24404353 63.13021881 36.71051948 61.75 43 C61.43240723 44.52778076 61.43240723 44.52778076 61.10839844 46.08642578 C59.45570257 53.83164963 57.60730233 61.5283848 55.75 69.2265625 C55.50562195 70.24077271 55.2612439 71.25498291 55.00946045 72.29992676 C53.76993287 77.43446286 52.51840568 82.56562773 51.24707031 87.69238281 C50.77399565 89.62562831 50.30101026 91.55889566 49.828125 93.4921875 C49.60850098 94.36235504 49.38887695 95.23252258 49.16259766 96.12905884 C47.27095388 103.91463986 45.61677637 111.83995065 47.5 119.75 C51.63853639 120.53489483 54.44155002 121.05871458 58.5 119.875 C66.82855105 113.97560968 71.69199132 105.54356304 76.73120117 96.87084961 C77.1769751 96.1103833 77.62274902 95.34991699 78.08203125 94.56640625 C78.47624268 93.88006104 78.8704541 93.19371582 79.27661133 92.48657227 C80.5 90.75 80.5 90.75 83.5 88.75 C86.0625 88.5 86.0625 88.5 88.5 88.75 C90.5 90.75 90.5 90.75 90.8125 93.8984375 C90.46555229 98.17456805 89.28087748 101.5339474 87.5 105.375 C87.18530762 106.06867676 86.87061523 106.76235352 86.54638672 107.47705078 C78.63948067 124.47826137 67.35714006 140.49211332 49.5 147.75 C40.53363429 150.61508043 32.11311734 150.82419039 23.5 146.75 C17.0704307 142.91504036 14.61321085 137.75702832 12.5 130.75 C11.93372491 127.37203725 11.83219433 124.10846607 11.875 120.6875 C11.88265381 119.74414795 11.89030762 118.8007959 11.89819336 117.82885742 C12.21928901 107.2170378 14.79674864 97.26251242 17.59277344 87.07080078 C18.86914297 82.39879368 20.07161789 77.7085227 21.27905273 73.01831055 C21.86436569 70.75146158 22.45464252 68.48588561 23.05102539 66.22192383 C25.01432694 58.76275448 26.80446264 51.27447426 28.5 43.75 C26.56447266 43.85828125 26.56447266 43.85828125 24.58984375 43.96875 C22.87240126 44.06259932 21.15495303 44.15634376 19.4375 44.25 C18.58994141 44.29769531 17.74238281 44.34539062 16.86914062 44.39453125 C16.03447266 44.43964844 15.19980469 44.48476563 14.33984375 44.53125 C13.58050537 44.57314453 12.82116699 44.61503906 12.03881836 44.65820312 C8.8580542 44.77321104 5.68253659 44.76360785 2.5 44.75 C2.21503662 45.97626099 2.21503662 45.97626099 1.92431641 47.22729492 C-6.56112999 83.35716743 -16.19482835 121.23217859 -42.5 148.75 C-43.43585938 149.79800781 -43.43585938 149.79800781 -44.390625 150.8671875 C-53.78549126 161.01206409 -65.67106403 167.50471327 -79.49365234 168.19921875 C-85.56641178 168.34390763 -90.99499424 168.24634261 -95.9609375 164.36328125 C-100.87083633 159.21661065 -103.10010222 153.33080853 -105.5 146.75 C-105.8810791 147.17708252 -106.2621582 147.60416504 -106.65478516 148.04418945 C-134.96145609 179.55195837 -134.96145609 179.55195837 -155.98828125 180.98828125 C-170.13072063 181.26275147 -170.13072063 181.26275147 -175.5 176.75 C-182.79236135 169.64162025 -184.82352268 159.93845211 -185.02026367 150.03613281 C-184.90996286 135.21064085 -182.54022391 121.22005585 -179.5 106.75 C-179.07725853 104.7215279 -178.65457382 102.69304398 -178.23193359 100.66455078 C-176.79622157 93.79364552 -175.33996188 86.92722331 -173.875 80.0625 C-173.63357269 78.92864868 -173.39214539 77.79479736 -173.1434021 76.62658691 C-172.44293029 73.34994829 -171.73458508 70.07511764 -171.0234375 66.80078125 C-170.81414108 65.82049454 -170.60484467 64.84020782 -170.38920593 63.83021545 C-166.58131947 46.45303862 -166.58131947 46.45303862 -160.78515625 42.03515625 C-153.81622419 38.11587651 -145.48249538 35.71523208 -137.5 36.75 C-135.81048584 38.03619385 -135.81048584 38.03619385 -134.5 39.75 C-133.82038295 47.4000483 -135.42886792 54.546709 -136.984375 62.015625 C-137.37721921 63.95674302 -137.77006285 65.89786116 -138.16287613 67.83898544 C-138.71309703 70.54631214 -139.27144692 73.25193893 -139.82958984 75.9576416 C-140.51948972 79.30918484 -141.2011274 82.66240291 -141.8828125 86.015625 C-142.67962059 89.93395615 -143.47654773 93.85225991 -144.27586365 97.77008057 C-145.83468178 105.42254442 -147.36508327 113.07936773 -148.83203125 120.75 C-148.99092834 121.5767926 -149.14982544 122.40358521 -149.3135376 123.25543213 C-152.03286383 137.2315844 -152.03286383 137.2315844 -148.5 150.75 C-147.36337945 152.10383939 -147.36337945 152.10383939 -144.35546875 151.98828125 C-132.1789137 151.2357282 -122.60807425 142.01840341 -114.5 133.75 C-113.62859375 132.92242188 -112.7571875 132.09484375 -111.859375 131.2421875 C-111.06015625 130.44039062 -110.2609375 129.63859375 -109.4375 128.8125 C-108.74527344 128.12285156 -108.05304688 127.43320312 -107.33984375 126.72265625 C-104.44691803 122.04852362 -103.64090313 117.09148582 -102.5 111.75 C-102.13751195 110.09729159 -101.7744301 108.44471335 -101.41088867 106.79223633 C-100.35114094 101.94464951 -99.3144159 97.09240678 -98.28521729 92.23825073 C-97.61715837 89.08802283 -96.94508168 85.93866762 -96.27294922 82.78930664 C-94.38461641 73.90843036 -92.50265986 65.03056003 -90.875 56.09765625 C-90.65569824 54.89898926 -90.43639648 53.70032227 -90.21044922 52.46533203 C-89.8340591 50.35798687 -89.47005653 48.24837125 -89.12158203 46.13623047 C-87.95519838 39.53759847 -86.26597436 35.43462218 -81.375 30.6875 C-75.24051521 26.55339069 -68.46382812 22.62449611 -60.9375 22.5625 C-59.75994141 22.54123047 -59.75994141 22.54123047 -58.55859375 22.51953125 C-56.5 22.75 -56.5 22.75 -54.5 24.75 C-52.93848163 33.89527405 -55.8119556 43.72973413 -57.64833069 52.65829277 C-58.22983404 55.4875217 -58.79765402 58.31920893 -59.36218262 61.15187073 C-60.76625601 68.18339867 -62.19222045 75.21044526 -63.6194458 82.23730469 C-64.82772528 88.18946976 -66.02658258 94.14338079 -67.21290588 100.09996223 C-67.76875392 102.87129122 -68.33812233 105.63961027 -68.90808105 108.4080658 C-71.87589498 121.49977098 -71.87589498 121.49977098 -71.5 134.75 C-70.31562424 136.63508884 -70.31562424 136.63508884 -68.5 137.75 C-60.66103396 137.62149236 -56.22697075 134.69733258 -50.75 129.1875 C-33.91041114 109.51448127 -27.74684143 81.11268158 -21.5 56.75 C-21.19126953 55.56245117 -20.88253906 54.37490234 -20.56445312 53.15136719 C-20.28021484 52.00571289 -19.99597656 50.86005859 -19.703125 49.6796875 C-19.31882324 48.14803955 -19.31882324 48.14803955 -18.92675781 46.58544922 C-18.47834973 43.60615204 -18.62447088 41.61999821 -19.5 38.75 C-21.21987138 36.87330764 -21.21987138 36.87330764 -23.375 35.3125 C-27.67551557 31.71332299 -30.10787497 28.97634522 -30.80859375 23.2109375 C-31.09665829 16.87351765 -30.38898401 11.86708422 -26.5 6.75 C-18.94934246 -1.074122 -10.66450594 -3.80875212 0 0 Z " fill="#F3E7C2" transform="translate(329.5,461.25)"/>
<path d="M0 0 C28.82989006 4.08150593 28.82989006 4.08150593 56.24780273 -3.96386719 C59.9132508 -5.76443817 61.81376477 -6.53134086 65.81030273 -5.71386719 C68.24780273 -3.77636719 68.24780273 -3.77636719 69.81030273 -0.71386719 C70.52102907 5.51402287 68.21703915 10.23259797 64.59936523 15.15332031 C56.4814666 24.83098987 46.23107079 29.62786273 33.81030273 31.28613281 C29.18148249 31.5591435 24.57106203 31.57042867 19.93530273 31.53613281 C18.66984619 31.53226562 17.40438965 31.52839844 16.10058594 31.52441406 C5.56874259 31.42840941 -4.74839684 30.58254729 -15.18969727 29.28613281 C-18.23672708 43.15936186 -21.20998287 57.04451443 -24.04037476 70.96359253 C-24.65440303 73.98238657 -25.27127775 77.00059161 -25.88818359 80.01879883 C-28.38708663 92.27153467 -30.83662294 104.533182 -33.24897575 116.80318642 C-34.1662662 121.46431561 -35.08801081 126.12456717 -36.00937748 130.78489208 C-36.76108243 134.59023412 -37.5092126 138.39620838 -38.24899292 142.20388794 C-52.26386829 214.30759467 -52.26386829 214.30759467 -73.18969727 238.28613281 C-73.70661133 238.94484375 -74.22352539 239.60355469 -74.75610352 240.28222656 C-85.18398219 253.17259225 -100.09008226 261.30954556 -116.54125977 263.10253906 C-129.81152928 263.77031494 -141.64884121 262.5652586 -152.36938477 253.99316406 C-157.69190255 249.00187593 -161.82375849 243.34947899 -162.49047852 235.94628906 C-162.4962793 234.16544922 -162.4962793 234.16544922 -162.50219727 232.34863281 C-162.51895508 231.16398438 -162.53571289 229.97933594 -162.55297852 228.75878906 C-162.07322837 224.17279037 -160.58655613 220.83819822 -157.50219727 217.41113281 C-154.05791624 215.73553664 -150.88572368 215.52980308 -147.18969727 216.28613281 C-143.59893167 218.63394109 -141.55261177 220.69337246 -139.31469727 224.34863281 C-135.34001571 229.84304556 -129.05154005 231.79647669 -122.54516602 233.02832031 C-115.61542799 233.7867991 -109.78549059 232.92273587 -104.05297852 228.83300781 C-98.18529757 223.96172552 -94.50792936 218.4579504 -91.06469727 211.72363281 C-90.75209961 211.11801514 -90.43950195 210.51239746 -90.11743164 209.88842773 C-83.32995729 195.96808302 -80.31044616 180.79079056 -77.09594727 165.75878906 C-76.61964151 163.56067868 -76.14278118 161.3626884 -75.66540527 159.16481018 C-69.71423084 131.68923856 -63.96362825 104.16983117 -58.21118164 76.65209961 C-57.00995436 70.90712603 -55.80359179 65.16325054 -54.5940094 59.42003059 C-54.14233635 57.27037767 -53.6926114 55.12031435 -53.24497986 52.96981621 C-52.62656658 49.99926627 -52.00162709 47.03015738 -51.37524414 44.0612793 C-51.19759521 43.19971222 -51.01994629 42.33814514 -50.83691406 41.45046997 C-47.72657687 26.82301241 -47.72657687 26.82301241 -45.18969727 24.28613281 C-67.99726151 19.99294425 -92.56825527 20.41941514 -112.50219727 33.59863281 C-122.1403708 40.7654798 -128.7518628 50.19082879 -130.90454102 62.14550781 C-131.94952085 69.99001397 -130.83603597 76.19792299 -127.18969727 83.28613281 C-124.47981495 86.05903565 -122.91170206 87.20266041 -119.01391602 87.39160156 C-115.21929491 87.11736844 -112.48856151 86.43556494 -109.06469727 84.72363281 C-105.48786556 82.93521696 -103.13854319 82.76458712 -99.18969727 83.28613281 C-97.25219727 84.78613281 -97.25219727 84.78613281 -96.18969727 87.28613281 C-95.27848086 94.83621162 -97.37366706 101.40241343 -101.83813477 107.55957031 C-107.70375984 114.44975872 -114.03327976 119.80202462 -123.18969727 121.28613281 C-134.54806482 122.19420676 -142.5707593 120.56897159 -151.43969727 113.28613281 C-159.75224695 105.35261448 -164.0142742 94.649844 -164.52563477 83.25488281 C-164.89368275 61.16395891 -160.01676254 43.18610818 -145.18969727 26.28613281 C-144.59801758 25.53976562 -144.00633789 24.79339844 -143.39672852 24.02441406 C-129.61744645 7.18959824 -107.18724025 -2.88398057 -85.84106445 -5.24462891 C-57.19090572 -7.7789109 -28.37326363 -3.75861975 0 0 Z " fill="#F3E7C2" transform="translate(164.189697265625,409.7138671875)"/>
<path d="M0 0 C10.18547935 8.81819781 18.17251301 18.70164677 19.75 32.5234375 C20.02192157 43.4003002 17.75762653 52.14649336 11.33984375 60.9296875 C10.69402344 61.84041016 10.69402344 61.84041016 10.03515625 62.76953125 C3.88345757 70.71113096 -4.99520755 74.86969042 -14.66015625 76.9296875 C-18.38299013 77.24757032 -22.0526255 77.21941271 -25.78515625 77.1171875 C-26.74164062 77.10365234 -27.698125 77.09011719 -28.68359375 77.07617188 C-31.00973735 77.04127972 -33.33462155 76.99227089 -35.66015625 76.9296875 C-44.2476024 94.98757916 -52.77721309 113.06471153 -60.99456787 131.29443359 C-67.03762796 144.6895228 -73.321397 157.96631966 -79.67163086 171.21826172 C-83.24785122 178.69942062 -86.77171499 186.14771608 -89.66015625 193.9296875 C-89.07661377 194.07809082 -88.49307129 194.22649414 -87.8918457 194.37939453 C-81.6912989 195.99905295 -75.9343756 198.45187294 -70.09765625 201.0546875 C-68.88263428 201.59609375 -68.88263428 201.59609375 -67.64306641 202.1484375 C-61.80168025 204.7881635 -61.80168025 204.7881635 -60.66015625 205.9296875 C-60.02324237 211.98036939 -60.92410261 215.2164775 -64.2734375 220.265625 C-65.66015625 221.9296875 -65.66015625 221.9296875 -68.66015625 223.9296875 C-71.97265625 223.6171875 -71.97265625 223.6171875 -75.66015625 222.9296875 C-79.64107134 222.20087054 -79.64107134 222.20087054 -83.66015625 221.9296875 C-84.29011509 224.78873146 -84.7837529 227.0439743 -84.66015625 229.9296875 C-82.31882885 232.95964061 -80.01288464 234.70731526 -76.78515625 236.7421875 C-74.66015625 238.9296875 -74.66015625 238.9296875 -74.59765625 242.7421875 C-75.44076326 247.07121774 -77.20680129 250.28682711 -79.66015625 253.9296875 C-82.45996317 255.32959096 -84.5482209 255.12225133 -87.66015625 254.9296875 C-90.4050293 254.01171875 -90.4050293 254.01171875 -93.171875 252.7421875 C-94.17669922 252.29101562 -95.18152344 251.83984375 -96.21679688 251.375 C-97.24998047 250.89804687 -98.28316406 250.42109375 -99.34765625 249.9296875 C-101.41186506 248.98735899 -103.4781822 248.04963113 -105.546875 247.1171875 C-106.45655029 246.69824219 -107.36622559 246.27929688 -108.3034668 245.84765625 C-110.70453307 244.74821052 -110.70453307 244.74821052 -113.66015625 244.9296875 C-113.95148438 245.54457031 -114.2428125 246.15945313 -114.54296875 246.79296875 C-116.51444771 250.6801301 -117.94798605 253.41878279 -121.53515625 255.9921875 C-126.2808537 257.41589673 -129.88934234 257.7167159 -134.47265625 255.6796875 C-137.80549558 253.01341603 -138.50307521 251.23171479 -139.01171875 247.015625 C-138.93018014 241.31526785 -136.08643999 236.37181648 -133.72265625 231.3046875 C-133.19051514 230.13663574 -132.65837402 228.96858398 -132.11010742 227.76513672 C-130.62626558 224.50916285 -129.12586867 221.26105072 -127.62280273 218.01391602 C-125.96406916 214.42258745 -124.32099395 210.82409952 -122.67578125 207.2265625 C-119.45489242 200.19012696 -116.22038104 193.16004137 -112.98025513 186.13244629 C-109.36778818 178.29717559 -105.76301674 170.45838065 -102.1607666 162.6184082 C-101.45081141 161.07328353 -100.74076879 159.52819903 -100.03063965 157.9831543 C-96.234805 149.7243146 -92.44402396 141.46321664 -88.66796875 133.1953125 C-88.17776497 132.12243233 -88.17776497 132.12243233 -87.67765808 131.02787781 C-86.04511104 127.45398614 -84.41506829 123.87898564 -82.78930664 120.30200195 C-79.53855181 113.15983704 -76.25040878 106.0383252 -72.88627625 98.94873047 C-71.17698856 95.34478285 -69.47876321 91.73566549 -67.7807312 88.12640381 C-66.95490054 86.3798878 -66.12335123 84.63606362 -65.28591919 82.89508057 C-64.1230527 80.47684387 -62.97964374 78.05026778 -61.83984375 75.62109375 C-61.3100164 74.53924049 -61.3100164 74.53924049 -60.76948547 73.43553162 C-58.92855551 69.61722186 -58.92855551 69.61722186 -59.35522461 65.54492188 C-60.86176892 63.68013288 -62.44595156 62.32802549 -64.34765625 60.8671875 C-73.18616528 53.3303498 -77.87997398 43.39081912 -78.9375 31.921875 C-79.31692989 20.05330794 -75.69302322 9.52885808 -67.62109375 0.69921875 C-48.44225137 -17.36142258 -20.26391267 -15.77073967 0 0 Z M-52.66015625 18.9296875 C-55.9445968 24.02167251 -55.42251263 30.13033365 -54.66015625 35.9296875 C-51.45694256 43.89061565 -44.62937456 49.26337418 -36.97265625 52.7421875 C-29.67756564 55.35740866 -22.91885065 55.98985372 -15.6484375 52.96875 C-10.74954757 50.40862285 -7.47254776 47.3448211 -4.72265625 42.5546875 C-3.02982051 36.77913025 -2.77255115 32.33768079 -5.22265625 26.8671875 C-9.98897386 18.4268334 -16.63568615 14.15081105 -25.66015625 10.9296875 C-36.37189687 8.4148955 -45.22940172 10.71569128 -52.66015625 18.9296875 Z " fill="#FECE59" transform="translate(564.66015625,42.0703125)"/>
<path d="M0 0 C12.62749785 9.1784263 23.36261855 20.81521458 33 33 C33.66644531 33.79921875 34.33289063 34.5984375 35.01953125 35.421875 C40.65832912 42.22847125 45.31546121 49.52611966 50 57 C50.99 58.485 50.99 58.485 52 60 C51.69742498 63.45206734 50.34248424 64.95538267 47.7890625 67.1796875 C47.12640381 67.77185059 46.46374512 68.36401367 45.78100586 68.97412109 C45.06952393 69.60141113 44.35804199 70.22870117 43.625 70.875 C36.13084022 77.67755804 29.99277462 84.87690351 24 93 C22.60932749 94.79567539 21.21422562 96.58793945 19.8125 98.375 C18.87462181 99.58303982 17.93694924 100.79123955 17 102 C11.63523874 98.64447442 6.31876196 95.26793709 1.1875 91.5625 C-13.60022057 81.19489622 -33.65971774 69.85331532 -52.08984375 68.828125 C-55 68 -55 68 -56.79296875 65.26171875 C-58.2515591 61.52331491 -59.68842637 57.79235609 -61 54 C-61.34417969 53.05640625 -61.68835938 52.1128125 -62.04296875 51.140625 C-64.05275646 44.61117383 -64.30021945 38.15569676 -64.375 31.375 C-64.38901855 30.50415771 -64.40303711 29.63331543 -64.41748047 28.73608398 C-64.33246129 17.18328529 -60.53507717 7.73789663 -52.75 -0.75 C-38.21306247 -14.65213677 -15.38889208 -9.61316286 0 0 Z " fill="#F3E7C2" transform="translate(170,98)"/>
<path d="M0 0 C21.89817553 19.1320902 33.86278636 48.13313273 41.875 75.4375 C41.875 76.0975 41.875 76.7575 41.875 77.4375 C41.33834717 77.60241943 40.80169434 77.76733887 40.2487793 77.93725586 C24.30585404 82.89498259 9.30596792 89.0035702 -5.125 97.4375 C-5.56328125 96.70789063 -6.0015625 95.97828125 -6.453125 95.2265625 C-23.52218321 67.12506423 -42.00603014 42.56278955 -68.515625 22.77734375 C-70.125 21.4375 -70.125 21.4375 -71.125 19.4375 C-71.7654734 10.47087235 -69.74514168 2.30191829 -63.984375 -4.7421875 C-45.50981438 -22.82862709 -17.87756057 -14.02523461 0 0 Z " fill="#F3E7C2" transform="translate(236.125,56.5625)"/>
<path d="M0 0 C0.59369385 0.41668945 1.1873877 0.83337891 1.79907227 1.26269531 C4.58753512 3.30200029 5.88146013 4.26938039 7 7.625 C6.16191399 10.44911378 5.25303902 13.17292196 4.25 15.9375 C-1.1157066 31.39234457 -4.2784192 46.16320874 -1.47265625 62.49609375 C-1.05334165 65.27188709 -0.91105 67.82569124 -1 70.625 C-25.90698973 70.52375207 -51.34426366 57.39747563 -68.875 40.3125 C-79.16253567 29.89258516 -85.19478489 18.30953623 -85.375 3.5625 C-85.29853412 -4.09297971 -84.36111344 -10.53861698 -79.6875 -16.75 C-59.21830576 -36.74316647 -18.66342958 -13.16163385 0 0 Z " fill="#F3E7C2" transform="translate(174,203.375)"/>
<path d="M0 0 C-1.2938435 5.04598965 -3.59089356 8.32061142 -6.85546875 12.265625 C-9.90902486 19.56081024 -6.2193754 28.47759447 -3.9375 35.625 C-3.65583984 36.53378906 -3.37417969 37.44257813 -3.08398438 38.37890625 C-2.39777317 40.58873894 -1.70307008 42.79548541 -1 45 C0.01578125 45.08636719 1.0315625 45.17273438 2.078125 45.26171875 C11.93169555 46.21788627 23.07438999 47.32215901 30.25 54.9375 C32.19770331 58.34598079 32.6137803 60.14195238 32 64 C30 66 30 66 26.5625 66.375 C21.88259906 66.27307838 17.9791014 64.69998035 13.65625 63.01953125 C1.63695096 58.40624147 -11.06223195 58.86347149 -23.7421875 59.21484375 C-24.76570313 59.22902344 -25.78921875 59.24320312 -26.84375 59.2578125 C-28.22336914 59.29092529 -28.22336914 59.29092529 -29.63085938 59.32470703 C-32 59 -32 59 -33.82617188 57.67138672 C-35 56 -35 56 -34.9375 53 C-33.833837 49.4682784 -33.12198454 48.85645647 -30 47 C-26.984375 46.26953125 -26.984375 46.26953125 -23.75 45.8125 C-22.67234375 45.65394531 -21.5946875 45.49539063 -20.484375 45.33203125 C-19.66453125 45.22246094 -18.8446875 45.11289062 -18 45 C-18.32798584 44.15816162 -18.65597168 43.31632324 -18.99389648 42.44897461 C-20.2168023 39.29968321 -21.4329677 36.14795473 -22.64477539 32.99438477 C-23.16882251 31.63463824 -23.6954721 30.27589154 -24.22485352 28.91821289 C-24.98894346 26.95721673 -25.74334485 24.99271683 -26.49609375 23.02734375 C-26.95169678 21.84906006 -27.4072998 20.67077637 -27.87670898 19.45678711 C-29.01397564 15.95699171 -29.59028929 12.6507059 -30 9 C-28.98421875 8.76925781 -27.9684375 8.53851563 -26.921875 8.30078125 C-19.03240502 6.4509957 -11.6736535 4.3074291 -4.2578125 0.953125 C-2 0 -2 0 0 0 Z " fill="#F3E7C2" transform="translate(366,323)"/>
<path d="M0 0 C0.3242395 0.77694214 0.3242395 0.77694214 0.6550293 1.56958008 C6.19245927 14.84773919 6.19245927 14.84773919 12.08984375 27.96875 C14.02710831 32.29225888 14.65625152 36.30868846 14 41 C11.98497111 44.75212276 10.54533858 46.63644095 7 49 C2.75254525 49.23862105 -0.9888596 48.52855066 -4.75 46.5625 C-11.15151938 39.27188071 -12.75967873 31.98847934 -12.4375 22.5 C-12.43169922 21.53191406 -12.42589844 20.56382813 -12.41992188 19.56640625 C-12.31290224 13.18803622 -11.46849222 7.20350906 -10 1 C-6.58093768 0.27021695 -3.50129871 -0.10003711 0 0 Z " fill="#F3E7C2" transform="translate(414,77)"/>
<path d="M0 0 C11.77839193 2.66518358 20.42541104 10.63189754 27.1171875 20.29296875 C28.4375 22.5 28.4375 22.5 28.4375 24.5 C26.51164062 24.64695312 26.51164062 24.64695312 24.546875 24.796875 C14.17551814 25.65259099 4.09393428 26.93778732 -6.07519531 29.17871094 C-9.97855211 30.03231811 -13.53577467 30.74355193 -17.5625 30.5 C-18.24031272 20.76585622 -16.88773569 12.13145596 -10.5 4.4375 C-7.20155508 0.85908098 -4.95119282 -0.9536808 0 0 Z " fill="#F3E7C2" transform="translate(422.5625,39.5)"/>
<path d="M0 0 C7.36571071 1.18965087 14.69481007 2.48077909 22 4 C20.72287446 8.10693899 19.18709006 11.81593585 17.1796875 15.6171875 C16.64472656 16.63554687 16.10976563 17.65390625 15.55859375 18.703125 C15.00300781 19.74984375 14.44742187 20.7965625 13.875 21.875 C13.31167969 22.94492188 12.74835938 24.01484375 12.16796875 25.1171875 C10.78265261 27.74694017 9.39322404 30.37443083 8 33 C5.53871927 29.30807891 5.18789517 25.8535647 4.5625 21.5625 C3.42985694 14.25507797 1.9724394 7.13435526 0 0 Z " fill="#F3E7C2" transform="translate(445,172)"/>
<path d="M0 0 C4.98232221 1.27454754 7.70268484 3.04322181 11 7 C12 8.875 12 8.875 12 11 C10.35214873 16.12664838 8.64861059 19.21083365 4 22 C-1.79108057 23.93036019 -6.93709356 24.20701825 -13 24 C-4.738041 7.1070615 -4.738041 7.1070615 0 0 Z " fill="#F3E7C2" transform="translate(503,195)"/>
</svg>
